{
 "asset": {
  "version": "2.0",
  "generator": "opensamguk tools/assets/build_iso3d_assets.py"
 },
 "scene": 0,
 "scenes": [
  {
   "name": "building-hamlet",
   "nodes": [
    0
   ]
  }
 ],
 "nodes": [
  {
   "name": "building-hamlet",
   "mesh": 0
  }
 ],
 "meshes": [
  {
   "name": "building-hamlet",
   "primitives": [
    {
     "attributes": {
      "POSITION": 0,
      "COLOR_0": 1
     },
     "indices": 2,
     "material": 0,
     "mode": 4
    }
   ]
  }
 ],
 "materials": [
  {
   "name": "vertex-color",
   "pbrMetallicRoughness": {
    "baseColorFactor": [
     1.0,
     1.0,
     1.0,
     1.0
    ],
    "metallicFactor": 0.0,
    "roughnessFactor": 0.95
   },
   "doubleSided": false
  }
 ],
 "accessors": [
  {
   "bufferView": 0,
   "componentType": 5126,
   "count": 108,
   "type": "VEC3",
   "min": [
    -0.26,
    0.0,
    -0.22
   ],
   "max": [
    0.28,
    0.3,
    0.33999999999999997
   ]
  },
  {
   "bufferView": 1,
   "componentType": 5126,
   "count": 108,
   "type": "VEC3"
  },
  {
   "bufferView": 2,
   "componentType": 5125,
   "count": 144,
   "type": "SCALAR"
  }
 ],
 "bufferViews": [
  {
   "buffer": 0,
   "byteOffset": 0,
   "byteLength": 1296,
   "target": 34962
  },
  {
   "buffer": 0,
   "byteOffset": 1296,
   "byteLength": 1296,
   "target": 34962
  },
  {
   "buffer": 0,
   "byteOffset": 2592,
   "byteLength": 576,
   "target": 34963
  }
 ],
 "buffers": [
  {
   "byteLength": 3168,
   "uri": "data:application/octet-stream;base64,"
  }
 ]
}
